# xmcd CD database file
#
# Track frame offsets:
#	150
#	63599
#	95143
#	120357
#	138294
#	163747
#	203831
#
# Disc length: 3304 seconds
#
# Revision: 17
# Processed by: cddbd v1.5.2PL0 Copyright (c) Steve Scherf et al.
# Submitted via: CDex 1.51
#
DISCID=600ce607
DTITLE=Sonny Simmons Trio - Live in Paris
DYEAR=2002
DGENRE=Jazz
TTITLE0=Cosmic Ship
TTITLE1=Purple Kiss
TTITLE2=My Favorite Things
TTITLE3=Ancient Egypt
TTITLE4=New Bird Blues
TTITLE5=Reverend Church
TTITLE6=Hot House
EXTD=YEAR: 2002
EXTT0=
EXTT1=
EXTT2=
EXTT3=
EXTT4=
EXTT5=
EXTT6=
PLAYORDER=
